Coordinates
version=1
nRows=13
nColumns=63
inDegrees=yes

Units are S.I. units (second, meters, Newtons, ...)
If the header above contains a line with 'inDegrees', this indicates whether rotational values are in degrees (yes) or radians (no).

endheader
time	pelvis_tilt	pelvis_list	pelvis_rotation	pelvis_tx	pelvis_ty	pelvis_tz	hip_flexion_r	hip_adduction_r	hip_rotation_r	knee_angle_r	knee_angle_r_beta	ankle_angle_r	subtalar_angle_r	mtp_angle_r	hip_flexion_l	hip_adduction_l	hip_rotation_l	knee_angle_l	knee_angle_l_beta	ankle_angle_l	subtalar_angle_l	mtp_angle_l	L5_S1_Flex_Ext	L5_S1_Lat_Bending	L5_S1_axial_rotation	L4_L5_Flex_Ext	L4_L5_Lat_Bending	L4_L5_axial_rotation	L3_L4_Flex_Ext	L3_L4_Lat_Bending	L3_L4_axial_rotation	L2_L3_Flex_Ext	L2_L3_Lat_Bending	L2_L3_axial_rotation	L1_L2_Flex_Ext	L1_L2_Lat_Bending	L1_L2_axial_rotation	L1_T12_Flex_Ext	L1_T12_Lat_Bending	L1_T12_axial_rotation	Abs_r3	Abs_r2	Abs_r1	Abs_t1	Abs_t2	neck_flexion	neck_bending	neck_rotation	arm_flex_r	arm_add_r	arm_rot_r	elbow_flex_r	pro_sup_r	wrist_flex_r	wrist_dev_r	arm_flex_l	arm_add_l	arm_rot_l	elbow_flex_l	pro_sup_l	wrist_flex_l	wrist_dev_l
0.000000	4.911828	-2.911447	97.100307	0.134412	0.573222	0.888749	11.353581	-0.299376	-11.841432	8.388706	0.146411	30.746453	17.367549	0.000000	13.123337	0.794481	7.876948	9.106498	0.158938	26.122722	-10.169149	0.000000	0.417129	0.381755	-0.093320	0.774650	0.507734	-0.099153	0.685301	0.928200	-0.099153	0.476737	0.928200	-0.081655	0.387346	0.778475	-0.075823	0.238347	0.591339	-0.069990	2.979509	4.318491	-0.519019	0.000000	0.000000	27.435797	0.773306	15.075246	26.542434	-7.224031	89.370855	35.529287	51.637570	-4.327597	-4.461262	18.316076	-2.871596	66.586385	36.822698	36.191657	-4.763397	-3.751283
0.016949	5.207518	-2.923712	97.048344	0.133859	0.573355	0.888536	11.391610	-0.013463	-11.714970	8.248766	0.143968	30.738682	17.309739	0.000000	13.125155	0.575565	8.558273	8.946439	0.156145	26.099825	-11.042385	0.000000	0.416937	0.427181	-0.224439	0.774294	0.568150	-0.238466	0.684986	1.038647	-0.238466	0.476518	1.038647	-0.196384	0.387168	0.871107	-0.182357	0.238238	0.661703	-0.168329	2.978142	4.832352	-1.248263	0.000000	0.000000	27.508214	0.742423	15.161131	27.016671	-7.035793	90.440544	35.637688	49.569055	-4.301398	-4.186253	17.701500	-3.004747	65.553613	36.657270	36.414512	-4.258728	-4.109054
0.033898	5.431540	-2.923279	97.002227	0.133441	0.573486	0.888464	11.425594	0.202805	-11.602727	8.151955	0.142278	30.730722	17.251409	0.000000	13.138132	0.401204	8.921534	8.840611	0.154298	26.143452	-11.530317	0.000000	0.414133	0.461375	-0.318037	0.769086	0.613629	-0.337915	0.680379	1.121788	-0.337915	0.473313	1.121788	-0.278283	0.384564	0.940837	-0.258405	0.236636	0.714670	-0.238528	2.958110	5.219170	-1.768828	0.000000	0.000000	27.565745	0.675455	15.096639	27.376569	-6.909078	91.157000	35.715649	48.137594	-4.360901	-4.018005	17.271640	-3.089572	64.722526	36.525167	36.543456	-3.871486	-4.319630
0.050847	5.591243	-2.912040	96.962029	0.133143	0.573615	0.888514	11.455792	0.356533	-11.505217	8.093420	0.141257	30.723122	17.194265	0.000000	13.160815	0.267453	9.007431	8.782903	0.153291	26.243968	-11.681972	0.000000	0.409120	0.485492	-0.378180	0.759777	0.645704	-0.401816	0.672143	1.180425	-0.401816	0.467583	1.180425	-0.330907	0.379909	0.990015	-0.307271	0.233771	0.752027	-0.283635	2.922303	5.491982	-2.103324	0.000000	0.000000	27.609876	0.577674	14.902207	27.635843	-6.836849	91.566607	35.766934	47.267248	-4.494122	-3.944732	17.005855	-3.132229	64.070872	36.425290	36.593864	-3.589793	-4.400174
0.067797	5.693977	-2.891885	96.927827	0.132953	0.573740	0.888670	11.482465	0.454831	-11.422956	8.068308	0.140819	30.716430	17.140016	0.000000	13.191750	0.170366	8.856668	8.767204	0.153017	26.391735	-11.546372	0.000000	0.402303	0.500683	-0.408932	0.747117	0.665908	-0.434490	0.660943	1.217360	-0.434490	0.459792	1.217360	-0.357816	0.373578	1.020993	-0.332257	0.229876	0.775558	-0.306699	2.873609	5.663825	-2.274358	0.000000	0.000000	27.642095	0.454354	14.598272	27.808213	-6.812069	91.715750	35.795311	46.882078	-4.689076	-3.954648	16.883505	-3.138875	63.576400	36.356540	36.581108	-3.401768	-4.367851
0.084746	5.747091	-2.864704	96.899695	0.132855	0.573861	0.888912	11.505872	0.504806	-11.356459	8.071765	0.140879	30.711197	17.090368	0.000000	13.229484	0.106000	8.509947	8.787401	0.153369	26.577117	-11.172542	0.000000	0.394086	0.508101	-0.414359	0.731857	0.675774	-0.440256	0.647444	1.235396	-0.440256	0.450401	1.235396	-0.362564	0.365948	1.036119	-0.336667	0.225181	0.787048	-0.310769	2.814917	5.747736	-2.304540	0.000000	0.000000	27.663886	0.310766	14.205270	27.907396	-6.827702	91.650814	35.804545	46.906147	-4.933781	-4.035968	16.883949	-3.115668	63.216858	36.317818	36.520561	-3.295534	-4.239825
0.101695	5.757933	-2.832388	96.877710	0.132835	0.573975	0.889223	11.526273	0.513565	-11.306243	8.098938	0.141353	30.707970	17.047029	0.000000	13.272562	0.070410	8.007970	8.837383	0.154241	26.790476	-10.609507	0.000000	0.384874	0.508898	-0.398525	0.714750	0.676834	-0.423433	0.632310	1.237334	-0.423433	0.439873	1.237334	-0.348710	0.357394	1.037744	-0.323802	0.219917	0.788282	-0.298894	2.749117	5.756751	-2.216478	0.000000	0.000000	27.676735	0.152182	13.743639	27.947109	-6.876710	91.418182	35.798400	47.263514	-5.216252	-4.176907	16.986546	-3.068768	62.969996	36.308025	36.427597	-3.259211	-4.033262
0.118644	5.733854	-2.796828	96.861945	0.132880	0.574082	0.889585	11.543928	0.488216	-11.272822	8.144974	0.142157	30.707299	17.011705	0.000000	13.319532	0.059651	7.391440	8.911037	0.155527	27.022175	-9.906291	0.000000	0.375071	0.504226	-0.365496	0.696545	0.670621	-0.388340	0.616205	1.225976	-0.388340	0.428669	1.225976	-0.319809	0.348291	1.028218	-0.296966	0.214316	0.781046	-0.274122	2.679098	5.703908	-2.032782	0.000000	0.000000	27.682129	-0.016125	13.233815	27.941070	-6.952057	91.064239	35.780644	47.878243	-5.524504	-4.365677	17.170657	-3.004330	62.813561	36.326062	36.317590	-3.280919	-3.765324
0.135593	5.682201	-2.759915	96.852476	0.132976	0.574180	0.889981	11.559097	0.435866	-11.256712	8.205019	0.143205	30.709733	16.986104	0.000000	13.368938	0.069779	6.701059	9.002252	0.157119	27.262578	-9.111918	0.000000	0.365083	0.495239	-0.319337	0.677995	0.658668	-0.339296	0.599794	1.204124	-0.339296	0.417253	1.204124	-0.279420	0.339016	1.009891	-0.259462	0.208608	0.767125	-0.239503	2.607749	5.602242	-1.776059	0.000000	0.000000	27.681554	-0.188883	12.696236	27.902997	-7.046706	90.635370	35.755042	48.674395	-5.846555	-4.590495	17.415639	-2.928515	62.725302	36.370831	36.205912	-3.348779	-3.453177
0.152542	5.610324	-2.723538	96.849379	0.133107	0.574269	0.890391	11.572040	0.363624	-11.258428	8.274221	0.144412	30.715820	16.971932	0.000000	13.419327	0.096849	5.977528	9.104917	0.158911	27.502048	-8.275413	0.000000	0.355312	0.483088	-0.264113	0.659850	0.642507	-0.280620	0.583742	1.174581	-0.280620	0.406086	1.174581	-0.231099	0.329943	0.985114	-0.214592	0.203025	0.748304	-0.198085	2.537959	5.464791	-1.468918	0.000000	0.000000	27.676496	-0.360819	12.151338	27.846607	-7.153620	90.177960	35.725359	49.576030	-6.170420	-4.839574	17.700852	-2.847479	62.682968	36.441232	36.107938	-3.450913	-3.113984
0.169492	5.525573	-2.689590	96.852728	0.133261	0.574347	0.890799	11.583016	0.278597	-11.278487	8.347724	0.145695	30.726110	16.970898	0.000000	13.469246	0.136917	5.261551	9.212918	0.160796	27.730948	-7.445799	0.000000	0.346164	0.468927	-0.203889	0.642862	0.623672	-0.216632	0.568714	1.140148	-0.216632	0.395631	1.140148	-0.178403	0.321448	0.956235	-0.165660	0.197798	0.726367	-0.152917	2.472618	5.304591	-1.133969	0.000000	0.000000	27.668440	-0.526662	11.619558	27.785619	-7.265763	89.738392	35.695361	50.507211	-6.484116	-5.101128	18.005656	-2.767380	62.664308	36.536166	36.039039	-3.575440	-2.764911
0.186441	5.448310	-2.679177	96.879251	0.133357	0.574410	0.891167	11.609174	0.193638	-11.351509	8.415579	0.146880	30.750751	17.018129	0.000000	13.537657	0.184887	4.650874	9.298521	0.162290	27.945471	-6.736300	0.000000	0.340313	0.455781	-0.155008	0.631996	0.606188	-0.164696	0.559101	1.108185	-0.164696	0.388944	1.108185	-0.135632	0.316015	0.929428	-0.125944	0.194455	0.706004	-0.116256	2.430823	5.155883	-0.862108	0.000000	0.000000	27.670511	-0.679790	11.127260	27.790604	-7.356044	89.559926	35.681192	51.325244	-6.833676	-5.372232	18.266182	-2.706587	62.487641	36.674215	36.103161	-3.709636	-2.440400
0.203390	5.375579	-2.676930	96.890321	0.133467	0.574443	0.891522	11.643447	0.115425	-11.415181	8.479961	0.148003	30.778015	17.066354	0.000000	13.599115	0.242618	4.255808	9.386543	0.163826	28.062965	-6.325108	0.000000	0.335947	0.443547	-0.107933	0.623887	0.589918	-0.114679	0.551928	1.078441	-0.114679	0.383954	1.078441	-0.094441	0.311961	0.904482	-0.087695	0.191960	0.687055	-0.080950	2.399637	5.017496	-0.600290	0.000000	0.000000	27.672063	-0.806586	10.708045	27.827322	-7.441360	89.535161	35.689447	51.911521	-7.097508	-5.602573	18.495640	-2.657852	62.317354	36.811389	36.308660	-3.807051	-2.168807
